# xmcd CD database file
#
# Track frame offsets:
#	187
#	20775
#	43105
#	61450
#	77012
#	98762
#	122890
#	140635
#	159187
#	174300
#	194402
#	208737
#
# Disc length: 2965 seconds
#
# Revision: 0
# Processed by: cddbd v1.5PL3 Copyright (c) Steve Scherf et al.
# Submitted via: CDex 1.50
#
DISCID=a70b930c
DTITLE=Thousand Yard Stare - Mappamundi
DYEAR=1993
DGENRE=Rock
TTITLE0=Version Of Me
TTITLE1=God's P45
TTITLE2=Tragedy No.6
TTITLE3=Debutance
TTITLE4=One And All
TTITLE5=Sooner
TTITLE6=Halfsize
TTITLE7=Small Change
TTITLE8=Monsieur Bour And His Goat
TTITLE9=Naturesway (Earthwatching)
TTITLE10=What's Your Level ?
TTITLE11=Downtown Mystic
EXTD=YEAR: 1993
EXTT0=
EXTT1=
EXTT2=
EXTT3=
EXTT4=
EXTT5=
EXTT6=
EXTT7=
EXTT8=
EXTT9=
EXTT10=
EXTT11=
PLAYORDER=
